PathFileType	4	(X/Y/Z)	Patient4_TMGait_0pt6_01_left_47.trc.trc
DataRate	CameraRate	NumFrames	NumMarkers	Units	OrigDataRate	OrigDataStartFrame	OrigNumFrames
79.545454545455	79.545454545455	5	33	mm	79.545454545455	53	       141
Frame#	Time	Sacral			L.Shoulder			Chest			R.Shoulder			Neck			R.ASIS			L.ASIS			R.Thigh.Superior			R.Thigh.Lateral			R.Thigh.Inferior			R.Patella			L.Thigh.Superior			L.Thigh.Lateral			L.Thigh.Inferior			L.Patella			L.Shank.Superior			L.Shank.Lateral			L.Shank.Inferior			R.Shank.Superior			R.Shank.Lateral			R.Shank.Inferior			R.Heel			R.Midfoot.Superior			R.Midfoot.Lateral			R.Toe			L.Heel			L.Midfoot.Lateral			L.Midfoot.Superior			L.Toe			L.Elbow			L.Wrist			R.Elbow			R.Wrist			
		X1	Y1	Z1	X2	Y2	Z2	X3	Y3	Z3	X4	Y4	Z4	X5	Y5	Z5	X6	Y6	Z6	X7	Y7	Z7	X8	Y8	Z8	X9	Y9	Z9	X10	Y10	Z10	X11	Y11	Z11	X12	Y12	Z12	X13	Y13	Z13	X14	Y14	Z14	X15	Y15	Z15	X16	Y16	Z16	X17	Y17	Z17	X18	Y18	Z18	X19	Y19	Z19	X20	Y20	Z20	X21	Y21	Z21	X22	Y22	Z22	X23	Y23	Z23	X24	Y24	Z24	X25	Y25	Z25	X26	Y26	Z26	X27	Y27	Z27	X28	Y28	Z28	X29	Y29	Z29	X30	Y30	Z30	X31	Y31	Z31	X32	Y32	Z32	X33	Y33	Z33	

53	57.833714285714	780.794553123651	1012.989259750682	401.532941050152	957.846878017876	1444.495731569047	231.288396026032	1058.543852797662	1372.830141822025	391.909849282980	970.888749355941	1439.396365248599	565.733125571232	936.063020650218	1501.053815703978	386.174137624835	1005.635948277047	950.400310802970	521.973081460612	1001.719963734349	968.723128417781	247.047892365047	1089.187099745066	780.001512444029	491.364807758871	1050.516156899953	658.638983379695	563.829227599437	1139.981273581134	619.519818446327	483.843419755955	1159.567165145641	505.480848753901	506.234413039618	1037.443063644417	748.479391234829	280.167493321441	939.705019942970	636.662999211438	226.806720446791	1018.463749379946	555.818642481776	292.100040546278	1014.194939836286	487.562553094246	306.009692645236	987.597875172550	416.900806419191	300.162496046076	896.576370712652	302.284037079949	254.244033383256	943.949236723176	193.132913340659	329.816773771609	1082.203958925770	431.360433730731	513.487504699061	959.638054558368	392.512040307416	571.585160075741	946.303817999418	283.091513516611	523.690326101309	747.127447783625	222.923428911104	491.189246848446	912.447266656590	160.016585948407	535.441868027716	802.257220006597	161.240977057626	565.647974201733	974.338937640728	46.585293238333	564.614854372398	814.273172304491	39.243178517422	379.373803623604	885.918528059941	35.282938508067	296.684959842581	970.209751618118	96.073431256278	320.862555346716	1098.160186515100	41.442618544640	289.076697314733	994.284262107836	1098.920637659759	93.109655850831	1195.419013017882	932.474363342447	97.817056960826	922.580877881101	1086.158564375495	664.453111120618	995.154069825932	835.354813393588	659.584480845073	
54	57.846285714286	779.598574112269	1013.588698193955	399.961150740796	959.349931052236	1445.150550921758	230.737541759584	1058.303086626168	1373.055067661638	392.176935475187	969.191189568431	1439.634591166501	565.196734886101	936.007650388152	1501.554342896387	385.423442446929	1003.795617922081	951.472146546954	521.956413543194	1001.611870265471	969.028173284739	246.899325339032	1089.607907799062	783.772318480773	490.890773585255	1053.592379096246	661.800613397156	563.642945318288	1143.287385823886	624.124142427910	483.263948964851	1165.515629443414	511.000339339822	505.914762150020	1034.511682135961	747.620136843104	280.880607190038	935.697740057297	636.823298062555	226.517817915391	1012.860986854161	555.120430834411	292.312801653488	1007.667299001876	487.082673771462	306.139686618592	981.060521948850	416.740002121391	300.081479152238	889.809590006665	302.398138440453	253.994520573494	936.668435340144	193.122717569414	329.688110455008	1090.776558897457	434.658315756125	513.236832464458	969.902808827423	390.755790940814	571.188299275996	961.165722062560	280.823175283759	523.292567683708	764.572901644757	212.269156356119	490.753581299695	932.394340821019	156.430521055501	534.801585399779	822.318754057880	152.937545681506	565.190778329356	999.145925663668	45.938612792615	563.977918739391	806.647145659418	39.345299183390	379.280089402936	878.334731540009	35.290197803883	296.637171390106	962.656381279023	96.070805945169	320.749152890472	1090.587581200118	41.343234979063	289.040254865756	1000.614462892122	1101.027491017916	91.406849311396	1208.825676893486	943.796580285756	96.822195286109	912.745261355289	1087.769537624857	663.209714450540	968.839574121220	832.497279536924	663.192005636514	
55	57.858857142857	778.465562740404	1014.099598424170	398.541783690365	960.958750987634	1445.719973984031	230.312841401389	1058.138957080976	1373.165483672291	392.556762489347	967.593175102179	1439.791611291489	564.757498418116	936.030603271701	1501.944128610171	384.840004505861	1001.991979375244	952.392009105300	521.997905838546	1001.343002995340	969.187889254555	246.875100732056	1089.713092604024	787.112752402015	490.636840073169	1056.019018158260	664.601523462127	563.598295259246	1145.832098074389	628.182104351152	482.872023036999	1170.479724328329	516.221377569770	505.791490267661	1031.509083048290	746.740099752860	281.628649700788	931.616982221046	636.975071923830	226.221688293949	1007.181730524036	554.425047233445	292.464971693524	1001.084442471386	486.624673059005	306.169091048678	974.475037634348	416.590076614853	299.938677869257	882.989247742580	302.518305698852	253.722180701217	929.368814497502	193.118133988980	329.518647082524	1098.767681918120	437.635790501458	513.187689658283	980.085969262783	388.211945127374	571.090809055862	976.468778914374	277.921367714444	523.202784897828	783.176878493200	200.228755155621	490.746609758507	953.412965170941	152.291502488519	534.505319265671	843.718593195370	143.667410380174	565.179753279554	1025.375970117619	45.205921174974	563.703742850936	799.042670105908	39.457688208303	379.179334558089	870.757520625094	35.294867222693	296.591768861547	955.111534711589	96.070230008866	320.626207543449	1083.021420976035	41.240610746739	289.005598530302	1006.526519882571	1103.055359470804	89.946057070906	1221.339517930738	955.271802190616	96.135456303151	902.724809750827	1089.684066258932	662.193993524312	943.488761115697	831.473036061563	666.624320045618	
56	57.871428571429	777.395722059542	1014.502921889048	397.277280737388	962.628261205469	1446.163820704510	230.017195354194	1058.045207398443	1373.138871318090	393.036766544365	966.117571841030	1439.855724630807	564.417900855583	936.131238079721	1502.200736765241	384.420945784169	1000.249449879572	953.122971048718	522.091862031791	1000.931868585777	969.197750408899	246.949953034843	1089.481305171921	789.922755784269	490.567571435232	1057.730000285552	666.942072966988	563.672788020761	1147.558411998782	631.575043381867	482.657545920052	1174.383385348123	521.026137721107	505.823709914490	1028.475753803031	745.831759008153	282.334917591721	927.477540260871	637.110015239298	225.909696441798	1001.470423008258	553.727500479486	292.527819704405	994.496243310040	486.181120687786	306.087499081609	967.879244788984	416.443496282041	299.728813394754	876.138234297428	302.641547179123	253.427842064132	922.066852171502	193.113368950332	329.313697411798	1106.099280729101	440.252957013483	513.312395813374	990.202836251706	384.945913594584	571.322615086522	992.144337107722	274.537531614241	523.424829519944	802.971900871283	187.109216400686	491.235066535989	975.396666240905	147.848659173800	534.557546333755	866.438065619227	133.748830289271	565.655195127778	1052.818370747022	44.678333562335	563.758459233656	791.462200225682	39.578971523772	379.070661482171	863.187389154522	35.296801590068	296.547992430122	947.576143898343	96.070990032577	320.496126395211	1075.461342265769	41.135442976872	288.971457053915	1012.049989803595	1104.948944083845	88.707535227881	1232.947492800264	966.765928089396	95.735947470762	892.549111527127	1091.926925118834	661.463792829982	919.320414316190	832.050331016671	669.831290172726	
57	57.884000000000	776.391282928786	1014.786893117769	396.166915419311	964.310261251131	1446.451119969552	229.851802456714	1058.013642737087	1372.962573342405	393.603506188878	964.785020866148	1439.824866005849	564.179568667093	936.303840676869	1502.310835162615	384.156925290269	998.592442335251	953.638550164911	522.238047284763	1000.404525692185	969.059850450414	247.101765270826	1088.891895710443	792.111531484491	490.651651786866	1058.657014066106	668.737667767562	563.851056791416	1148.413123583020	634.200024385772	482.616726407839	1177.163940530489	525.310320136991	505.971467061384	1025.445006578650	744.887732348751	282.936642476330	923.289748230403	637.222939953236	225.578851540157	995.761562395290	553.024094992310	292.485157939080	987.939516823005	485.744370609658	305.895158577450	961.298400779993	416.295576707747	299.453658979528	869.270077574898	302.765919596759	253.116373383665	914.774977571698	193.105183310483	329.081391274500	1112.697346881393	442.485474679618	513.583463792821	1000.261075760352	381.045848006372	571.905643864987	1008.111198652711	270.840830604197	523.948497471751	823.966790721732	173.234789426802	492.250366653353	998.224289190486	143.362606455701	534.945161710625	890.429731551475	123.509226594982	566.622017802837	1081.250131519081	44.655897899309	564.096199227231	783.903950680480	39.706846439027	378.955832774331	855.623636233568	35.296490992128	296.505597045483	940.049437410363	96.072251887628	320.361928457121	1067.905636679184	41.029149127663	288.937129872844	1017.218795682254	1106.666609991778	87.674942347331	1243.642892948449	978.142352052718	95.603707941851	882.281455376475	1094.515878062391	661.052705089438	896.496279867708	833.969608491777	672.779578071478	
